<mxfile host="Electron" agent="Mozilla/5.0 (Windows NT 10.0; Win64; x64) AppleWebKit/537.36 (KHTML, like Gecko) draw.io/24.7.17 Chrome/128.0.6613.36 Electron/32.0.1 Safari/537.36" version="24.7.17">
  <diagram name="Page-1" id="lgoBg58G1Oznnne_eFFp">
    <mxGraphModel dx="1322" dy="684" grid="1" gridSize="10" guides="1" tooltips="1" connect="1" arrows="1" fold="1" page="1" pageScale="1" pageWidth="850" pageHeight="1100" math="0" shadow="0">
      <root>
        <mxCell id="0" />
        <mxCell id="1" parent="0" />
        <mxCell id="zv_tZL6Ekax4tB3QGeg9-1" value="Wallet" style="rounded=1;arcSize=10;whiteSpace=wrap;html=1;align=center;" parent="1" vertex="1">
          <mxGeometry x="375" y="360" width="100" height="40" as="geometry" />
        </mxCell>
        <mxCell id="zv_tZL6Ekax4tB3QGeg9-2" value="User" style="ellipse;whiteSpace=wrap;html=1;align=center;" parent="1" vertex="1">
          <mxGeometry x="260" y="280" width="100" height="40" as="geometry" />
        </mxCell>
        <mxCell id="zv_tZL6Ekax4tB3QGeg9-3" value="Amount" style="ellipse;whiteSpace=wrap;html=1;align=center;" parent="1" vertex="1">
          <mxGeometry x="375" y="280" width="100" height="40" as="geometry" />
        </mxCell>
        <mxCell id="zv_tZL6Ekax4tB3QGeg9-4" value="" style="endArrow=none;html=1;rounded=0;" parent="1" source="zv_tZL6Ekax4tB3QGeg9-2" target="zv_tZL6Ekax4tB3QGeg9-1" edge="1">
          <mxGeometry relative="1" as="geometry">
            <mxPoint x="300" y="360" as="sourcePoint" />
            <mxPoint x="460" y="360" as="targetPoint" />
          </mxGeometry>
        </mxCell>
        <mxCell id="zv_tZL6Ekax4tB3QGeg9-5" value="" style="endArrow=none;html=1;rounded=0;" parent="1" source="zv_tZL6Ekax4tB3QGeg9-3" target="zv_tZL6Ekax4tB3QGeg9-1" edge="1">
          <mxGeometry relative="1" as="geometry">
            <mxPoint x="319" y="326" as="sourcePoint" />
            <mxPoint x="399" y="370" as="targetPoint" />
          </mxGeometry>
        </mxCell>
        <mxCell id="zv_tZL6Ekax4tB3QGeg9-7" value="WalletFlow" style="ellipse;shape=doubleEllipse;margin=3;whiteSpace=wrap;html=1;align=center;" parent="1" vertex="1">
          <mxGeometry x="490" y="280" width="100" height="40" as="geometry" />
        </mxCell>
        <mxCell id="zv_tZL6Ekax4tB3QGeg9-8" value="" style="endArrow=none;html=1;rounded=0;" parent="1" source="zv_tZL6Ekax4tB3QGeg9-1" target="zv_tZL6Ekax4tB3QGeg9-7" edge="1">
          <mxGeometry relative="1" as="geometry">
            <mxPoint x="510" y="380" as="sourcePoint" />
            <mxPoint x="670" y="380" as="targetPoint" />
          </mxGeometry>
        </mxCell>
      </root>
    </mxGraphModel>
  </diagram>
</mxfile>
